#!OML:ASF H:\Not Pregnant\Project 1\Capture day 1\Session 1\non-pregnant.ASF
:FULLY-SPECIFIED
:DEGREES
760
root 9.25088 16.6499 -28.5216 -166.236 -76.2864 -185.155
lowerback 1.33204 1.74206 -0.101282
upperback -4.37645 2.10413 -2.84098
thorax -5.16951 0.943886 -3.0065
lowerneck 0.124587 -0.725341 -32.3792
upperneck 9.50879 -3.68684 34.6493
head 3.81566 -2.24074 18.8097
rclavicle -3.51041e-014 -9.54166e-015
rhumerus -35.2868 -4.01588 -81.6839
rradius 32.2767
rwrist 18.142
rhand -11.1673 -0.75281
rfingers 7.12502
rthumb 14.8593 -30.2
lclavicle -3.51041e-014 -9.54166e-015
lhumerus -40.716 -12.2467 89.1704
lradius 48.5901
lwrist 42.3646
lhand -13.1543 -12.2737
lfingers 7.12502
lthumb 12.9445 17.3048
rfemur -42.5715 9.79253 9.84467
rtibia 34.0912
rfoot -13.9527 3.43175
rtoes -23.4337
lfemur -12.5607 -2.96196 -31.6316
ltibia 25.4613
lfoot -11.7586 -26.854
ltoes 24.0216
761
root 9.1477 16.6524 -28.5557 -165.9 -76.9408 -185.403
lowerback 1.21397 1.69947 -0.130649
upperback -4.3563 2.05178 -2.79127
thorax -5.08611 0.921767 -2.93041
lowerneck 0.193625 -0.758101 -32.3438
upperneck 9.40204 -3.72637 34.6098
head 3.78851 -2.26082 18.7698
rclavicle 1.07219e-014 -2.38542e-015
rhumerus -35.2398 -4.04249 -81.4602
rradius 32.3607
rwrist 18.0389
rhand -11.3321 -0.859147
rfingers 7.12502
rthumb 14.7005 -30.318
lclavicle 1.07219e-014 -2.38542e-015
lhumerus -40.6466 -12.3829 89.4152
lradius 48.5159
lwrist 42.1849
lhand -12.9815 -12.2878
lfingers 7.12502
lthumb 13.1111 17.2801
rfemur -42.5656 9.87787 9.72642
rtibia 31.8607
rfoot -14.0803 5.04476
rtoes -23.4891
lfemur -11.9949 -3.24423 -31.5602
ltibia 25.084
lfoot -11.533 -27.1591
ltoes 24.1703
762
root 9.04349 16.6546 -28.5884 -165.636 -77.5781 -185.574
lowerback 1.09285 1.66876 -0.122395
upperback -4.34616 2.01605 -2.74853
thorax -5.0091 0.905927 -2.88397
lowerneck 0.268497 -0.781605 -32.2888
upperneck 9.30327 -3.7558 34.5648
head 3.75759 -2.27579 18.7227
rclavicle -2.19098e-014 -1.43125e-014
rhumerus -35.2057 -4.12313 -81.226
rradius 32.3977
rwrist 17.9573
rhand -11.4848 -0.964646
rfingers 7.12502
rthumb 14.5534 -30.4341
lclavicle -2.19098e-014 -1.43125e-014
lhumerus -40.5972 -12.4953 89.6373
lradius 48.4145
lwrist 41.9916
lhand -12.8181 -12.2887
lfingers 7.12502
lthumb 13.2686 17.2689
rfemur -42.544 9.87642 9.70437
rtibia 29.6937
rfoot -14.1924 6.60404
rtoes -23.4603
lfemur -11.4459 -3.49833 -31.4645
ltibia 24.7247
lfoot -11.2791 -27.4764
ltoes 24.3658
763
root 8.93792 16.6561 -28.6196 -165.356 -78.1932 -185.752
lowerback 0.962409 1.64421 -0.100224
upperback -4.34248 1.98843 -2.71138
thorax -4.93252 0.893236 -2.85158
lowerneck 0.33004 -0.802944 -32.2397
upperneck 9.22226 -3.78102 34.5184
head 3.73245 -2.28811 18.6779
rclavicle 3.05631e-015 -8.74653e-015
rhumerus -35.1738 -4.22315 -80.9869
rradius 32.3862
rwrist 17.8884
rhand -11.6196 -1.06517
rfingers 7.12502
rthumb 14.4235 -30.544
lclavicle 3.05631e-015 -8.74653e-015
lhumerus -40.5612 -12.5525 89.8347
lradius 48.2842
lwrist 41.7836
lhand -12.6393 -12.2678
lfingers 7.12502
lthumb 13.4408 17.2786
rfemur -42.5213 9.73533 9.79349
rtibia 27.6316
rfoot -14.2791 8.12011
rtoes -23.3766
lfemur -10.9137 -3.7239 -31.3703
ltibia 24.3844
lfoot -11.0186 -27.7958
ltoes 24.5464
764
root 8.83131 16.657 -28.6497 -165.049 -78.7996 -185.959
lowerback 0.83322 1.62103 -0.0748149
upperback -4.34402 1.96225 -2.6758
thorax -4.86193 0.880907 -2.82305
lowerneck 0.382913 -0.828984 -32.2178
upperneck 9.15808 -3.81499 34.4842
head 3.71785 -2.3056 18.6478
rclavicle -3.20416e-014 0
rhumerus -35.1435 -4.33236 -80.743
rradius 32.3251
rwrist 17.8325
rhand -11.7494 -1.15773
rfingers 7.12502
rthumb 14.2985 -30.6454
lclavicle -3.20416e-014 0
lhumerus -40.5504 -12.5602 90.0124
lradius 48.1367
lwrist 41.568
lhand -12.4682 -12.2493
lfingers 7.12502
lthumb 13.6058 17.2861
rfemur -42.5027 9.41288 10.0234
rtibia 25.7213
rfoot -14.3413 9.62214
rtoes -23.2375
lfemur -10.3841 -3.92342 -31.2774
ltibia 24.0512
lfoot -10.7416 -28.127
ltoes 24.7148
